<?xml version="1.0" encoding="UTF-8" standalone="no"?>
<svg
   xmlns="http://www.w3.org/2000/svg"
   version="1.1"
   viewBox="0 0 600.50513 58.615204"
   width="600.50513"
   height="58.615204">
  <path
     style="fill:#000000;fill-opacity:1;stroke:none;stroke-width:1.34181559"
     d="m 9.8539612,45.654051 8.4073098,-10.671628 1.593407,-3.564196 h 0.985394 l 0.314495,3.564196 4.19317,10.671628 h 8.63794 L 26.521828,28.860397 41.281798,11.395825 h -9.895892 l -7.568677,9.686225 -1.614372,3.543239 H 21.217462 L 20.902967,21.08205 17.150078,11.395825 H 8.5540721 L 15.535706,26.889597 0,45.654051 Z m 0,0"
     id="path14041-9-9" />
  <path
     style="fill:#000000;fill-opacity:1;stroke:none;stroke-width:1.34181559;stroke-opacity:1"
     d="m 45.163686,58.615199 3.24971,-16.185656 h 0.314494 c 0.02079,0.04199 0.188674,0.188712 0.46125,0.41932 0.50318,0.482215 0.8596,0.796709 1.740166,1.383749 1.551477,1.069266 3.815788,2.054653 6.981634,2.054653 4.780218,0 8.67987,-2.117548 11.677987,-6.310722 3.019087,-4.19317 4.486696,-9.413676 4.486696,-15.661504 0,-4.528629 -1.132157,-7.925094 -3.375503,-10.210374 -2.264323,-2.243346 -5.010852,-3.375507 -8.281527,-3.375507 -3.564196,0 -6.457485,1.383745 -8.637936,4.193174 H 53.466163 V 11.400065 H 46.673229 L 37.406316,58.615199 Z M 56.925538,39.179838 c -3.941583,0 -6.457489,-2.998122 -6.457489,-8.071854 0,-4.172213 0.943464,-7.421918 2.872323,-9.770094 1.928863,-2.327213 4.06738,-3.501305 6.436524,-3.501305 3.941582,0 6.541349,2.998118 6.541349,8.092827 0,4.193174 -0.985394,7.442879 -2.914253,9.749132 -1.92886,2.327202 -4.109311,3.501294 -6.478454,3.501294 z m 0,0"
     id="path14045-6-1" />
  <path
     style="fill:#000000;fill-opacity:1;stroke:none;stroke-width:1.34181559"
     d="m 102.9501,45.654051 1.36278,-7.107428 H 92.970346 l 2.348175,-11.971506 c 1.048294,-5.178572 4.109311,-7.757374 9.245949,-7.757374 h 6.91874 l 1.48857,-7.421918 h -7.77833 c -3.69,0 -6.394592,1.509547 -8.071863,4.507664 H 96.073293 L 95.695907,11.395825 H 83.724398 l -1.42568,7.107427 h 6.792941 L 85.212976,38.546623 H 77.12015 l -1.362781,7.107428 z m 0,0"
     id="path14053-9-2" />
  <path
     style="fill:#000000;fill-opacity:1;stroke:none;stroke-width:1.34181559"
     d="m 129.23544,46.287265 c 4.15125,0 7.54772,-1.048293 10.21038,-3.081974 2.6417,-2.054668 4.61249,-4.486707 5.89141,-7.233225 h -8.55407 c -1.74017,2.138517 -3.98352,3.207772 -6.79295,3.207772 -5.51402,0 -8.00896,-3.144881 -8.00896,-8.071854 h 24.97035 l 0.18867,-0.649946 c 0.16774,-0.880559 0.37739,-3.081986 0.37739,-5.493052 0,-4.067388 -1.32085,-7.44288 -3.94158,-10.168456 -2.62072,-2.704584 -6.24781,-4.067372 -10.8603,-4.067372 -5.30437,0 -9.68623,1.86596 -13.2085,5.618853 -3.5013,3.752893 -5.26243,8.910493 -5.26243,15.409908 0,4.654424 1.42568,8.239585 4.2351,10.734531 2.80943,2.536868 6.39459,3.794815 10.75549,3.794815 z M 122.69409,25.59396 c 1.29989,-4.822148 4.80119,-7.757375 9.26692,-7.757375 5.26243,0 7.82026,2.998118 7.82026,7.757375 z m 0,0"
     id="path14057-3-7" />
  <path
     style="fill:#000000;fill-opacity:1;stroke:none;stroke-width:1.34181559"
     d="m 167.75606,46.287265 c 5.3463,0 9.39271,-1.572442 11.40543,-4.046415 1.99176,-2.453 2.83039,-4.926973 2.83039,-7.568677 0,-2.033681 -0.64994,-3.731921 -1.97079,-5.11567 -1.36278,-1.362784 -2.97715,-2.369144 -4.86408,-2.998118 -1.92886,-0.628973 -3.83675,-1.216013 -5.72368,-1.677267 -1.88693,-0.482215 -3.5013,-1.00636 -4.84312,-1.677267 -1.34181,-0.628974 -2.01272,-1.446652 -2.01272,-2.432039 0,-1.488586 1.88693,-2.935227 5.17857,-2.935227 4.52863,0 7.10743,1.299878 7.77834,3.878691 h 8.07185 v -0.314494 c 0,-3.061013 -1.32084,-5.57692 -3.96254,-7.631573 -2.66267,-2.033692 -6.39459,-3.040051 -11.21674,-3.040051 -4.46573,0 -7.8622,1.048293 -10.29424,3.165841 -2.43204,2.11756 -3.64806,4.738292 -3.64806,7.820277 0,1.803054 0.48221,3.375496 1.42567,4.717323 0.94347,1.341812 2.15949,2.327199 3.60613,2.998106 1.44665,0.649947 3.04005,1.216025 4.69636,1.761132 1.67727,0.545121 3.22874,0.985402 4.67539,1.257962 2.87232,0.62897 5.0318,1.719198 5.0318,3.186811 0,2.243346 -2.22238,3.543228 -5.84947,3.543228 -5.32533,0.04188 -8.23959,-1.572439 -8.7218,-4.822144 h -8.07186 v 0.314494 c 0.27254,4.046411 1.99175,6.981638 5.05277,8.847598 3.06102,1.844999 6.85584,2.767495 11.4264,2.767495 z m 0,0"
     id="path14061-3-0" />
  <path
     style="fill:#000000;fill-opacity:1;stroke:none;stroke-width:1.34181559"
     d="m 204.21212,46.287265 c 5.34631,0 9.39271,-1.572442 11.40544,-4.046415 1.99175,-2.453 2.83039,-4.926973 2.83039,-7.568677 0,-2.033681 -0.64995,-3.731921 -1.97079,-5.11567 -1.36278,-1.362784 -2.97716,-2.369144 -4.86408,-2.998118 -1.92886,-0.628973 -3.83676,-1.216013 -5.72369,-1.677267 -1.88692,-0.482215 -3.50129,-1.00636 -4.84311,-1.677267 -1.34181,-0.628974 -2.01272,-1.446652 -2.01272,-2.432039 0,-1.488586 1.88692,-2.935227 5.17856,-2.935227 4.52863,0 7.10743,1.299878 7.77835,3.878691 h 8.07185 v -0.314494 c 0,-3.061013 -1.32085,-5.57692 -3.96254,-7.631573 -2.66267,-2.033692 -6.39459,-3.040051 -11.21675,-3.040051 -4.46572,0 -7.8622,1.048293 -10.29424,3.165841 -2.43204,2.11756 -3.64805,4.738292 -3.64805,7.820277 0,1.803054 0.48221,3.375496 1.42568,4.717323 0.94345,1.341812 2.15948,2.327199 3.60612,2.998106 1.44665,0.649947 3.04005,1.216025 4.69636,1.761132 1.67725,0.545121 3.22874,0.985402 4.67538,1.257962 2.87232,0.62897 5.03182,1.719198 5.03182,3.186811 0,2.243346 -2.22239,3.543228 -5.84948,3.543228 -5.32534,0.04188 -8.23959,-1.572439 -8.7218,-4.822144 h -8.07187 v 0.314494 c 0.27254,4.046411 1.99176,6.981638 5.05279,8.847598 3.06101,1.844999 6.85582,2.767495 11.42638,2.767495 z m 0,0"
     id="path14061-2-9" />
  <path
     style="fill:#000000;fill-opacity:1;stroke:none;stroke-width:1.34181559"
     d="m 312.81824,23.356871 v -0.314456 l -13.94231,-13.900384 -4.63345,4.717341 5.93334,5.954306 H 267.511 v 6.47845 h 33.02124 l -6.28976,6.247823 4.63345,4.73828 z m 0,0"
     id="path14065-8-6" />
  <path
     style="fill:#000000;fill-opacity:1;stroke:none;stroke-width:1.33333325"
     d="m 328.18193,38.145822 c -1.72916,-2.249991 -2.58333,-5.437493 -2.58333,-9.604157 0,-4.145839 0.85417,-7.354167 2.58333,-9.604157 1.75,-2.249991 3.91667,-3.35418 6.5,-3.35418 2.60417,0 4.75,1.104189 6.5,3.35418 1.70833,2.24999 2.5625,5.458318 2.5625,9.604157 0,4.166664 -0.85417,7.354166 -2.5625,9.604157 -1.75,2.250028 -3.89583,3.39583 -6.5,3.39583 -2.58333,0 -4.75,-1.145802 -6.5,-3.39583 z m 15.91667,2.750022 0.625,4.541666 h 3.91666 V -4e-6 h -4.89583 V 15.89582 h -0.31249 c -2.5,-3.229153 -5.64583,-4.833336 -9.41667,-4.833336 -4.04166,0 -7.29166,1.458369 -9.68749,4.395855 -2.41667,2.958312 -3.60417,7.291654 -3.60417,13.083326 0,5.812497 1.1875,10.187489 3.60417,13.125014 2.39583,2.937481 5.64583,4.395821 9.72916,4.395821 4.0625,0 7.29167,-1.70835 9.6875,-5.166656 z m 0,0"
     id="path14390-0-0" />
  <path
     style="fill:#000000;fill-opacity:1;stroke:none;stroke-width:1.33333325"
     d="m 373.44619,46.0625 c 3.0625,0 5.79167,-0.85418 8.22917,-2.52084 2.4375,-1.687479 4.1875,-3.958333 5.27083,-6.854169 h -5.16667 c -2.0625,3.229191 -4.8125,4.854161 -8.33333,4.854161 -2.89583,0 -5.27083,-1.041638 -7.0625,-3.16664 -1.8125,-2.104176 -2.83333,-4.937499 -2.97917,-8.520831 h 24.64584 l 0.31249,-3.22919 c 0,-4.499981 -1.41667,-8.20834 -4.27084,-11.166652 -2.85416,-2.937486 -6.39583,-4.395855 -10.64583,-4.395855 -4.3125,0 -7.85416,1.583358 -10.6875,4.708347 -2.8125,3.166677 -4.22916,7.45833 -4.22916,12.812484 0,5.416668 1.35416,9.666671 4.10416,12.791697 2.77084,3.145818 6.33333,4.687488 10.8125,4.687488 z M 363.40452,25.625003 c 0.33332,-2.979174 1.41667,-5.375017 3.22917,-7.250002 1.8125,-1.875024 4.08333,-2.791673 6.8125,-2.791673 2.72917,0 5,0.916649 6.83333,2.791673 1.8125,1.874985 2.89584,4.270828 3.25,7.250002 z m 0,0"
     id="path14394-5-6" />
  <path
     style="fill:#000000;fill-opacity:1;stroke:none;stroke-width:1.33333325"
     d="m 420.40711,45.43751 v -4.541666 h -9.41667 V -4e-6 h -12 v 4.562495 h 7.125 v 36.333353 h -10.04166 v 4.541666 z m 0,0"
     id="path14402-6-2" />
  <path
     style="fill:#000000;fill-opacity:1;stroke:none;stroke-width:1.33333325"
     d="m 455.42919,45.43751 v -4.541666 h -9.41667 V 11.687505 h -12.35417 v 4.541669 h 7.47917 v 24.66667 H 431.09585 V 45.43751 Z M 445.70002,5.791669 c 0.64584,-0.666671 0.95834,-1.416681 0.95834,-2.333329 0,-0.958337 -0.31249,-1.770822 -0.95834,-2.437493 C 445.03336,0.354176 444.24169,-4e-6 443.30419,-4e-6 c -1,0 -1.79167,0.354142 -2.45833,1.020851 -1.3125,1.354167 -1.3125,3.541644 0,4.812472 0.66666,0.666671 1.45833,0.9792 2.45833,0.9792 0.9375,0 1.72917,-0.354142 2.39583,-1.02085 z m 0,0"
     id="path14406-6-6" />
  <path
     style="fill:#000000;fill-opacity:1;stroke:none;stroke-width:1.33333325"
     d="m 477.80948,45.43751 12.33334,-33.750005 h -5.1875 l -8.375,23.708333 -1.35417,4.85416 h -0.66667 l -1.31249,-4.85416 -8.41667,-23.708333 h -5.20833 l 12.33333,33.750005 z m 0,0"
     id="path14410-4-1" />
  <path
     style="fill:#000000;fill-opacity:1;stroke:none;stroke-width:1.33333325"
     d="m 510.82199,46.0625 c 3.0625,0 5.79167,-0.85418 8.22915,-2.52084 2.43752,-1.687479 4.18752,-3.958333 5.27085,-6.854169 h -5.16666 c -2.06251,3.229191 -4.81251,4.854161 -8.33334,4.854161 -2.89584,0 -5.27085,-1.041638 -7.0625,-3.16664 -1.8125,-2.104176 -2.83334,-4.937499 -2.97916,-8.520831 h 24.64582 l 0.31249,-3.22919 c 0,-4.499981 -1.41667,-8.20834 -4.27084,-11.166652 -2.85416,-2.937486 -6.39583,-4.395855 -10.64583,-4.395855 -4.3125,0 -7.85417,1.583358 -10.68751,4.708347 -2.81249,3.166677 -4.22916,7.45833 -4.22916,12.812484 0,5.416668 1.35416,9.666671 4.10416,12.791697 2.77085,3.145818 6.33334,4.687488 10.81251,4.687488 z M 500.78033,25.625003 c 0.33331,-2.979174 1.41666,-5.375017 3.22916,-7.250002 1.8125,-1.875024 4.08333,-2.791673 6.8125,-2.791673 2.72916,0 5,0.916649 6.83334,2.791673 1.81248,1.874985 2.89581,4.270828 3.25,7.250002 z m 0,0"
     id="path14398-0-8" />
  <path
     style="fill:#000000;fill-opacity:1;stroke:none;stroke-width:1.33333325"
     d="M 556.34371,45.43751 V 40.895844 H 545.94789 V 24.333312 c 0.0831,-2.312466 0.97917,-4.249965 2.72916,-5.791634 1.72917,-1.562495 3.85418,-2.312504 6.35418,-2.312504 h 4.89581 v -4.541669 h -4.89581 c -4.22918,0 -7.27086,1.520806 -9.08334,4.541669 h -0.31256 l -0.64581,-4.541669 h -10.70835 v 4.541669 h 6.8125 v 24.66667 h -8.10416 v 4.541666 z m 0,0"
     id="path14414-0-7" />
  <path
     style="fill:#000000;fill-opacity:1;stroke:none;stroke-width:1.33333325"
     d="m 581.50006,58.4375 18.49999,-46.749995 h -5.18751 L 584.10423,38.62499 h -0.31257 L 573.08331,11.687505 h -5.20834 l 13.62501,33.750005 -5.16669,12.99999 z m 0,0"
     id="path14418-4-9" />
</svg>
